<?xml version="1.0" encoding="utf-8"?>
<!-- Generator: Adobe Illustrator 24.1.2, SVG Export Plug-In . SVG Version: 6.00 Build 0)  -->
<svg version="1.1" id="Layer_1" xmlns="http://www.w3.org/2000/svg" xmlns:xlink="http://www.w3.org/1999/xlink" x="0px" y="0px"
	 viewBox="0 0 72 72" style="enable-background:new 0 0 72 72;" xml:space="preserve">
<style type="text/css">
	.st0{fill:none;stroke:#020202;stroke-width:4;stroke-miterlimit:10;}
	.st1{fill:#020202;stroke:#020202;stroke-width:4;stroke-miterlimit:10;}
</style>
<circle class="st0" cx="36.2" cy="36.2" r="16.1"/>
<circle class="st1" cx="54.4" cy="14.4" r="2.9"/>
<path class="st0" d="M52.7,68.5H18.5c0,0-8.8,0.4-13.3-10c-1.3-3-2-6.3-2-9.6V22.7c0-4.2,1.2-8.4,3.4-11.9c2-3.1,5-6.1,9.6-7
	c1-0.2,2.1-0.3,3.1-0.3h32.3h1c1.1,0,2.1,0.1,3.1,0.3c4.6,1,7.6,4,9.6,7c2.3,3.5,3.4,7.7,3.4,11.9V49c0,3.3-0.6,6.6-2,9.6
	c-4.6,10.4-13.3,10-13.3,10H52.7z"/>
</svg>
