<?xml version="1.0" encoding="utf-8"?>
<!-- Generator: Adobe Illustrator 24.1.2, SVG Export Plug-In . SVG Version: 6.00 Build 0)  -->
<svg version="1.1" id="Layer_1" xmlns="http://www.w3.org/2000/svg" xmlns:xlink="http://www.w3.org/1999/xlink" x="0px" y="0px"
	 viewBox="0 0 360 360" style="enable-background:new 0 0 360 360;" xml:space="preserve">
<style type="text/css">
	.st0{fill:none;stroke:#010101;stroke-width:17.9309;stroke-miterlimit:10;}
	.st1{fill:#010101;stroke:#010101;stroke-width:0.5977;stroke-miterlimit:10;}
</style>
<circle class="st0" cx="184.4" cy="183.7" r="44.2"/>
<circle class="st1" cx="234.4" cy="123.9" r="8"/>
<path class="st0" d="M229.7,272.2h-93.9c0,0-24.1,1.2-36.6-27.3c-3.6-8.3-5.4-17.2-5.4-26.2v-71.9c0-11.5,3.2-22.9,9.4-32.5
	c5.5-8.4,13.8-16.6,26.4-19.3c2.8-0.6,5.7-0.9,8.6-0.9h88.7h2.7c2.9,0,5.8,0.2,8.6,0.9c12.5,2.7,20.9,10.9,26.4,19.3
	c6.3,9.7,9.4,21,9.4,32.5v71.9c0,9-1.7,18-5.4,26.2c-12.5,28.6-36.6,27.3-36.6,27.3H229.7z"/>
</svg>
