<?xml version="1.0" encoding="utf-8"?>
<!-- Generator: Adobe Illustrator 24.1.2, SVG Export Plug-In . SVG Version: 6.00 Build 0)  -->
<svg version="1.1" id="Layer_1" xmlns="http://www.w3.org/2000/svg" xmlns:xlink="http://www.w3.org/1999/xlink" x="0px" y="0px"
	 viewBox="0 0 72 72" style="enable-background:new 0 0 72 72;" xml:space="preserve">
<style type="text/css">
	.st0{fill:#020202;}
</style>
<path class="st0" d="M7.8,9.6c0,0,8.2,13.8,28.2,15.7c0,0-2.5-7.4,0-12.4c4.7-9.4,14.5-9.4,22.1-1.4c0,0,7.9-2.2,8.5-3.5
	c0,0-2.2,6.4-5.5,7.8c0,0,4.9-0.1,7.4-1.7c0,0-5.1,6.6-6.9,7.5c0,0,2,34.1-29.2,43.5c0,0-14,4.6-29-6c0,0,11.1,1.9,19.7-6
	c0,0-10.3-0.7-12.3-10.5c0,0,4.9,0.7,5.6-0.3c0,0-9.6-2.4-10.3-14.8c0,0,4,2.4,5.9,1.9C12,29.6,3,22.1,7.8,9.6z"/>
</svg>
