<?xml version="1.0" encoding="utf-8"?>
<!-- Generator: Adobe Illustrator 24.1.2, SVG Export Plug-In . SVG Version: 6.00 Build 0)  -->
<svg version="1.1" id="Layer_1" xmlns="http://www.w3.org/2000/svg" xmlns:xlink="http://www.w3.org/1999/xlink" x="0px" y="0px"
	 viewBox="0 0 360 360" style="enable-background:new 0 0 360 360;" xml:space="preserve">
<style type="text/css">
	.st0{fill:#010101;}
</style>
<path class="st0" d="M106.5,108.1c0,0,22.8,38.3,78,43.6c0,0-6.9-20.4,0-34.2c13.1-26,40.2-26,61.1-3.8c0,0,21.8-6,23.5-9.8
	c0,0-6,17.6-15.1,21.6c0,0,13.7-0.2,20.6-4.8c0,0-14.2,18.3-19.2,20.7c0,0,5.6,94.5-80.8,120.5c0,0-38.7,12.7-80.3-16.5
	c0,0,30.7,5.3,54.6-16.5c0,0-28.5-1.8-34.1-29.2c0,0,13.7,1.8,15.5-0.7c0,0-26.7-6.7-28.5-41.1c0,0,11.2,6.7,16.2,5.3
	C118.1,163.3,93.2,142.6,106.5,108.1z"/>
</svg>
